<svg id="Layer_1" data-name="Layer 1" xmlns="http://www.w3.org/2000/svg" viewBox="0 0 250 250"><defs><style>.cls-1{fill:#355c7d;}</style></defs><title>Logo Color</title><path class="cls-1" d="M85.66,35.48c-8.7,20-17.28,40.07-25.47,60.3a81.49,81.49,0,0,0-5,19.25c-2.9,21,4.91,35.3,24,43.11,9.49,3.87,19.54,6.35,29.43,9.1,8.59,2.39,17,5.12,24.67,9.91a36.29,36.29,0,0,1,5.81,4.49c4.08,3.91,4.2,9.07.46,13.39-4,4.65-9.24,7.59-14.64,10-26.52,11.65-54,18.45-83,17-8.66-.42-17.07-2.17-24.73-6.57C6.33,209.22,1.32,199.2.46,186.71S2.28,162.48,6,150.85c7.53-23.45,18.8-45,31.3-65.92C55.14,55.14,74.71,26.66,96.85.11,98.51-1.88,90.91,23.42,85.66,35.48Z"/><path class="cls-1" d="M38.93,232.05c21-2.46,42.05-5.06,63-8.08a74.3,74.3,0,0,0,18.53-5.35c18.91-8.14,26.78-22.4,23.49-43.43-1.63-10.44-4.71-20.66-7.48-30.87-2.4-8.88-4.44-17.78-4.37-27a38.81,38.81,0,0,1,.76-7.47c1.16-5.63,5.38-8.38,10.87-7.25,5.91,1.22,11,4.36,15.73,8,23.2,17.69,42.88,38.72,56.51,65.31,4.07,7.94,6.92,16.32,7.18,25.4.37,12.84-5.38,22.42-15.31,29.57s-21,10.75-32.58,13.36c-23.29,5.26-46.93,6.23-70.66,5.76-33.81-.67-67.43-3.57-100.75-9.75C1.38,239.68,26.25,233.54,38.93,232.05Z"/><path class="cls-1" d="M225.8,173.86c-12.5-17.71-25.1-35.34-38-52.71a77.81,77.81,0,0,0-13.68-14c-16.2-13-32-13-48,.41-7.93,6.65-15,14.49-22.15,22-6.24,6.57-12.68,12.82-20.49,17.35a35.52,35.52,0,0,1-6.63,3c-5.29,1.75-9.69-.69-11.46-6.19-1.92-5.93-1.81-12.07-1.14-18.11C67.5,96,75.35,67.86,90.86,42.39c4.63-7.6,10.24-14.32,17.71-19.06,10.57-6.7,21.45-6.28,32.36-.89S160.36,36,168.28,45.13c16,18.36,28.5,39.15,39.88,60.74A675.5,675.5,0,0,1,250,201.39C250.82,203.87,233.34,184.54,225.8,173.86Z"/></svg>