<svg id="Layer_1" data-name="Layer 1" xmlns="http://www.w3.org/2000/svg" viewBox="0 0 700 250"><defs><style>.cls-1{fill:#355c7d;}.cls-2{fill:#272727;}</style></defs><title>Full Logo Color</title><path class="cls-1" d="M89,34.53c-9,20-17.91,40.06-26.4,60.28a79.18,79.18,0,0,0-5.21,19.25c-3,21,5.08,35.3,24.91,43.1,9.84,3.87,20.25,6.35,30.5,9.1,8.9,2.39,17.63,5.12,25.56,9.91a37.48,37.48,0,0,1,6,4.49c4.23,3.91,4.35,9.07.48,13.39-4.17,4.65-9.57,7.58-15.17,10-27.48,11.65-56,18.44-86.05,17-9-.42-17.69-2.17-25.63-6.57C6.8,208.23,1.6,198.21.72,185.72s1.89-24.23,5.76-35.85C14.28,126.43,26,104.87,38.92,84,57.38,54.18,77.67,25.7,100.62-.84,102.34-2.83,94.46,22.47,89,34.53Z"/><path class="cls-1" d="M40.59,231.06C62.39,228.6,84.18,226,105.9,223a79.18,79.18,0,0,0,19.21-5.35c19.6-8.14,27.75-22.39,24.34-43.42-1.69-10.44-4.88-20.65-7.75-30.87-2.49-8.88-4.6-17.77-4.53-27a37.48,37.48,0,0,1,.78-7.47c1.2-5.63,5.58-8.38,11.27-7.25,6.13,1.22,11.41,4.36,16.31,8,24,17.68,44.44,38.71,58.57,65.3,4.22,7.93,7.17,16.32,7.44,25.39.38,12.84-5.58,22.42-15.86,29.56s-21.8,10.75-33.76,13.35c-24.14,5.26-48.64,6.23-73.23,5.76-35-.67-69.88-3.57-104.42-9.75C1.67,238.68,27.44,232.54,40.59,231.06Z"/><path class="cls-1" d="M234.27,172.87c-13-17.71-26-35.34-39.42-52.7a79.18,79.18,0,0,0-14.18-14c-16.79-13-33.21-13-49.78.41-8.22,6.65-15.51,14.49-23,22-6.47,6.57-13.15,12.82-21.23,17.35a37.48,37.48,0,0,1-6.88,3c-5.49,1.75-10-.69-11.88-6.19-2-5.92-1.88-12.07-1.18-18.11C70.2,95,78.34,66.9,94.41,41.43c4.8-7.6,10.61-14.32,18.36-19.06,11-6.7,22.23-6.28,33.54-.89s20.15,13.59,28.35,22.69C191.19,62.53,204.19,83.32,216,104.9c16.81,30.76,31.57,62.45,43.34,95.5C260.2,202.88,242.08,183.55,234.27,172.87Z"/><path class="cls-2" d="M339.67,64.15V186.39H320.47L303,131.73v54.66H283.79V64.15H303v.35l17.46,57.63v-58h19.21Z"/><path class="cls-2" d="M406.55,63.8V169.1a16.49,16.49,0,0,1-4.19,11.35,16.23,16.23,0,0,1-10.3,5.76l-.35.17H365.87l-.35-.17a16.22,16.22,0,0,1-10.3-5.76A16.49,16.49,0,0,1,351,169.1V63.8h19.21V167.18h17.11V63.8Z"/><path class="cls-2" d="M470.12,68.87a13.45,13.45,0,0,1,3.32,9.08V96.46H454.23V83.36H437.11v83.82h17.11V153.91h19.21v18.69a13.45,13.45,0,0,1-3.32,9.08,13.85,13.85,0,0,1-8.38,4.71H429.6a13.84,13.84,0,0,1-8.38-4.71,13.44,13.44,0,0,1-3.32-9.08V77.95a13.45,13.45,0,0,1,3.32-9.08,13.87,13.87,0,0,1,8.38-4.71h32.13A13.88,13.88,0,0,1,470.12,68.87Z"/><path class="cls-2" d="M539.62,83.36H522.33v103H503.12v-103H484.61V64.15h55Z"/><path class="cls-2" d="M610.86,186.39H592.28l-22.11-80.33h17.11V83.36H570.17v22.7L551,68.17v-4h41.69a13.35,13.35,0,0,1,9.28,3.49,13.92,13.92,0,0,1,4.56,8.73l.17,34.92v.17a13.15,13.15,0,0,1-3.6,9.17,14.07,14.07,0,0,1-8.69,4.63ZM551,106.06h19.21v80.33H551Z"/><path class="cls-2" d="M661.68,64.15A14.15,14.15,0,0,1,673.2,77.95v94.82a13.22,13.22,0,0,1-3.32,8.91,13.76,13.76,0,0,1-8.21,4.71h-32.3a13.75,13.75,0,0,1-8.21-4.71,13.21,13.21,0,0,1-3.32-8.91V77.95a14.15,14.15,0,0,1,11.53-13.79ZM654,96.25V83.36H637.05v83.82H654V96.25Z"/></svg>