<svg id="Layer_1" data-name="Layer 1" xmlns="http://www.w3.org/2000/svg" viewBox="0 0 32 32"><defs><style>.cls-1{fill:#355c7d;}</style></defs><title>Favicon</title><path class="cls-1" d="M10.94,4.54C9.82,7.1,8.72,9.67,7.67,12.26A10.42,10.42,0,0,0,7,14.72c-.37,2.69.63,4.52,3.08,5.52a34.11,34.11,0,0,0,3.77,1.16A11.75,11.75,0,0,1,17,22.68a4.65,4.65,0,0,1,.74.57A1.17,1.17,0,0,1,17.85,25,5.11,5.11,0,0,1,16,26.24,23.4,23.4,0,0,1,5.33,28.42a6.92,6.92,0,0,1-3.17-.84A4.28,4.28,0,0,1,0,23.9a12.19,12.19,0,0,1,.71-4.59,40.84,40.84,0,0,1,4-8.44A84.87,84.87,0,0,1,12.37,0,22.62,22.62,0,0,1,10.94,4.54Z"/><path class="cls-1" d="M5,29.7c2.7-.32,5.39-.65,8.08-1A9.53,9.53,0,0,0,15.4,28a4.67,4.67,0,0,0,3-5.56,37.3,37.3,0,0,0-1-4A12.82,12.82,0,0,1,16.89,15a5,5,0,0,1,.1-1,1.1,1.1,0,0,1,1.39-.93,5,5,0,0,1,2,1,24.69,24.69,0,0,1,7.24,8.36,7.56,7.56,0,0,1,.92,3.25,4.3,4.3,0,0,1-2,3.78,11.18,11.18,0,0,1-4.17,1.71,37.57,37.57,0,0,1-9.05.74A79.29,79.29,0,0,1,.46,30.74,20.69,20.69,0,0,1,5,29.7Z"/><path class="cls-1" d="M28.9,22.25C27.3,20,25.68,17.73,24,15.51a10,10,0,0,0-1.75-1.8,4.37,4.37,0,0,0-6.15.05,35.58,35.58,0,0,0-2.84,2.82,12.09,12.09,0,0,1-2.63,2.22,4.55,4.55,0,0,1-.85.39,1.09,1.09,0,0,1-1.47-.79,5.48,5.48,0,0,1-.15-2.32A25.58,25.58,0,0,1,11.61,5.43,7.26,7.26,0,0,1,13.88,3,4,4,0,0,1,18,2.87a11.48,11.48,0,0,1,3.5,2.91,40.34,40.34,0,0,1,5.11,7.77A86.41,86.41,0,0,1,32,25.78,21.77,21.77,0,0,1,28.9,22.25Z"/></svg>