<svg id="Layer_1" data-name="Layer 1" xmlns="http://www.w3.org/2000/svg" viewBox="0 0 250 250"><defs><style>.cls-1{fill:#fff;stroke:#000;stroke-miterlimit:10;stroke-width:2px;}</style></defs><title>Logo White</title><path class="cls-1" d="M85.27,35.48c-8.69,20-17.26,40.07-25.44,60.3a81.57,81.57,0,0,0-5,19.25c-2.9,21,4.9,35.3,24,43.11,9.48,3.87,19.52,6.35,29.39,9.1,8.58,2.39,17,5.12,24.64,9.91a36.25,36.25,0,0,1,5.8,4.49c4.08,3.91,4.2,9.07.46,13.39-4,4.65-9.23,7.59-14.62,10C98,216.64,70.54,223.44,41.55,222c-8.65-.42-17-2.17-24.7-6.57C6,209.22,1,199.2.16,186.71S2,162.48,5.71,150.85c7.52-23.45,18.78-45,31.27-65.92C54.77,55.14,74.32,26.66,96.44.11,98.1-1.88,90.51,23.42,85.27,35.48Z"/><path class="cls-1" d="M38.59,232.05c21-2.46,42-5.06,62.95-8.08A74.16,74.16,0,0,0,120,218.62c18.89-8.14,26.75-22.4,23.46-43.43-1.63-10.44-4.71-20.66-7.47-30.87-2.4-8.88-4.44-17.78-4.37-27a38.85,38.85,0,0,1,.76-7.47c1.16-5.63,5.37-8.38,10.86-7.25,5.91,1.22,11,4.36,15.72,8,23.18,17.69,42.83,38.72,56.45,65.31,4.07,7.94,6.91,16.32,7.17,25.4.37,12.84-5.37,22.42-15.29,29.57s-21,10.75-32.54,13.36c-23.27,5.26-46.88,6.23-70.58,5.76-33.77-.67-67.35-3.57-100.64-9.75C1.08,239.68,25.92,233.54,38.59,232.05Z"/><path class="cls-1" d="M225.18,173.94c-12.46-17.72-25-35.37-37.93-52.75a77.78,77.78,0,0,0-13.65-14c-16.17-13-32-13-48,.35-7.93,6.64-15,14.47-22.15,22-6.24,6.56-12.68,12.8-20.48,17.33a35.46,35.46,0,0,1-6.63,3c-5.29,1.75-9.67-.7-11.45-6.2-1.91-5.93-1.79-12.07-1.12-18.11C67.14,95.89,75,67.76,90.53,42.31c4.63-7.6,10.24-14.31,17.71-19,10.57-6.69,21.43-6.26,32.32-.85S160,36,167.86,45.15c15.92,18.38,28.42,39.18,39.77,60.79a675.94,675.94,0,0,1,41.67,95.57C250.14,204,232.7,184.63,225.18,173.94Z"/></svg>